<svg height="17" width="49" xmlns="http://www.w3.org/2000/svg" viewBox="0 0 49 17"><path fill="#1c548e" fill-rule="evenodd" d="M14.03.87l-3.77 10.32-.41-2.09c-.93-2.57-2.97-5.27-5.34-6.36l3.45 13.25 4.08-.01L18.11.87h-4.08M17.26 16L19.68.86h3.85L21.12 16h-3.86M35.1 1.23C34.34.93 33.14.6 31.64.6c-3.81 0-6.49 2.05-6.51 4.99-.02 2.18 1.91 3.4 3.37 4.12 1.51.74 2.01 1.21 2.01 1.88-.02 1.01-1.21 1.47-2.31 1.47-1.54 0-2.37-.22-3.63-.79l-.5-.24-.54 3.39c.9.42 2.57.79 4.3.81 4.04 0 6.68-2.04 6.71-5.18.02-1.72-1.01-3.03-3.24-4.11-1.34-.7-2.17-1.17-2.16-1.88 0-.63.69-1.3 2.21-1.3 1.26-.02 2.17.27 2.88.58l.34.18.53-3.29M44.98.88h-2.97c-.93 0-1.62.26-2.03 1.25l-5.72 13.88h4.05s.66-1.87.81-2.28c.44 0 4.37.01 4.94.01.12.53.47 2.27.47 2.27h3.57L44.98.88zm-4.75 9.75c.32-.87 1.54-4.23 1.54-4.23-.03.04.31-.88.51-1.44l.26 1.3s.74 3.62.89 4.37h-3.2zm0 0"/><path fill="#e79f3f" fill-rule="evenodd" d="M6.76.87H.54l-.04.26C5.34 2.38 8.53 5.46 9.85 9.1L8.5 2.14C8.27 1.19 7.6.9 6.76.87"/></svg>