<?xml version="1.0" encoding="utf-8"?>
<!-- Generator: Avocode 2.6.0 - http://avocode.com -->
<svg height="17" width="49" xmlns:xlink="http://www.w3.org/1999/xlink" xmlns="http://www.w3.org/2000/svg" viewBox="0 0 49 17">
    <path fill="#1c548e" fill-rule="evenodd" d="M 14.03 0.87 L 10.26 11.19 L 9.85 9.1 C 8.92 6.53 6.88 3.83 4.51 2.74 L 7.96 15.99 L 12.04 15.98 L 18.11 0.87 L 14.03 0.87" />
    <path fill="#1c548e" fill-rule="evenodd" d="M 17.26 16 L 19.68 0.86 L 23.53 0.86 L 21.12 16 L 17.26 16" />
    <path fill="#1c548e" fill-rule="evenodd" d="M 35.1 1.23 C 34.34 0.93 33.14 0.6 31.64 0.6 C 27.83 0.6 25.15 2.65 25.13 5.59 C 25.11 7.77 27.04 8.99 28.5 9.71 C 30.01 10.45 30.51 10.92 30.51 11.59 C 30.49 12.6 29.3 13.06 28.2 13.06 C 26.66 13.06 25.83 12.84 24.57 12.27 L 24.07 12.03 L 23.53 15.42 C 24.43 15.84 26.1 16.21 27.83 16.23 C 31.87 16.23 34.51 14.19 34.54 11.05 C 34.56 9.33 33.53 8.02 31.3 6.94 C 29.96 6.24 29.13 5.77 29.14 5.06 C 29.14 4.43 29.83 3.76 31.35 3.76 C 32.61 3.74 33.52 4.03 34.23 4.34 L 34.57 4.52 L 35.1 1.23" />
    <path fill="#1c548e" fill-rule="evenodd" d="M 44.98 0.88 L 42.01 0.88 C 41.08 0.88 40.39 1.14 39.98 2.13 L 34.26 16.01 L 38.31 16.01 C 38.31 16.01 38.97 14.14 39.12 13.73 C 39.56 13.73 43.49 13.74 44.06 13.74 C 44.18 14.27 44.53 16.01 44.53 16.01 L 48.1 16.01 L 44.98 0.88 L 44.98 0.88 Z M 40.23 10.63 C 40.55 9.76 41.77 6.4 41.77 6.4 C 41.74 6.44 42.08 5.52 42.28 4.96 L 42.54 6.26 C 42.54 6.26 43.28 9.88 43.43 10.63 L 40.23 10.63 L 40.23 10.63 Z M 40.23 10.63" />
    <path fill="#e79f3f" fill-rule="evenodd" d="M 6.76 0.87 L 0.54 0.87 L 0.5 1.13 C 5.34 2.38 8.53 5.46 9.85 9.1 L 8.5 2.14 C 8.27 1.19 7.6 0.9 6.76 0.87" />
</svg>