<svg height="20" width="20" xmlns="http://www.w3.org/2000/svg" viewBox="0 0 20 20"><path fill="#acc1c7" fill-rule="evenodd" d="M6.22 13.78c4.67 4.67 8.85 6.08 9.43 6.16.58.09 1.54.27 2.92-1.11 1.62-1.62 1.78-2.47.89-3.36-.89-.89-3.1-2.24-3.71-2.59-.6-.35-1.11-.24-1.54.07-.44.3-.94.68-1.4 1.02-.47.33-1.05.48-1.67.08-.62-.39-1.67-1.13-2.87-2.32-1.19-1.2-1.93-2.25-2.32-2.87-.4-.62-.25-1.2.08-1.67.34-.46.72-.96 1.02-1.4.31-.43.42-.94.07-1.54-.35-.61-1.7-2.82-2.59-3.71-.89-.89-1.74-.73-3.36.89C-.21 2.81-.03 3.77.06 4.35c.08.58 1.49 4.76 6.16 9.43"/></svg>