<svg height="23" width="139" xmlns="http://www.w3.org/2000/svg" viewBox="0 0 139 23"><path fill="#276cca" fill-rule="evenodd" d="M7.07 22.07v-6.84h5.02c5.07 0 7.81-3.38 7.81-7.42 0-4.07-2.74-7.45-7.81-7.45H.5v21.71h6.57zM11.24 9.5H7.07V6.09h4.17c1.11 0 1.99.55 1.99 1.72 0 1.14-.88 1.69-1.99 1.69zm36.57 12.57L39.8.36h-8.27l-8 21.71h7.45l.78-2.54h7.81l.78 2.54h7.46zm-9.99-8.27h-4.3l2.15-7 2.15 7zm27.35 8.27v-8.63L73.24.36h-7.39l-3.97 7.32L57.85.36h-7.39l8.14 13.08v8.63h6.57zm41.12 0V.36h-9.08l-3.8 10.41L89.6.36h-9.08v21.71h6.57V9.02l4.85 13.05h2.93l4.85-13.05v13.05h6.57zm20.33.39c6.71 0 11.88-4.56 11.88-11.23C138.5 4.56 133.33 0 126.62 0c-6.7 0-11.88 4.56-11.88 11.23 0 6.67 5.18 11.23 11.88 11.23zm0-5.8c-3.16 0-5.21-2.4-5.21-5.43s2.05-5.44 5.21-5.44 5.21 2.41 5.21 5.44c0 3.03-2.05 5.43-5.21 5.43zm0 0"/></svg>