<svg height="46" width="45" xmlns="http://www.w3.org/2000/svg" viewBox="0 0 45 46"><path fill="#ff6b6b" fill-rule="evenodd" d="M22.54 45.23c12.32 0 22.32-10 22.32-22.32 0-12.33-10-22.32-22.32-22.32C10.21.59.22 10.58.22 22.91c0 12.32 9.99 22.32 22.32 22.32zm2.98-22.48l4.24-4.25c.78-.78.78-2.04 0-2.82-.78-.78-2.04-.78-2.82 0l-4.25 4.25c-.08.08-.22.08-.31 0l-4.25-4.25c-.78-.78-2.04-.78-2.82 0-.78.78-.78 2.04 0 2.82l4.25 4.25c.08.09.08.23 0 .32l-4.25 4.24c-.78.78-.78 2.05 0 2.82.78.78 2.04.78 2.82 0l4.25-4.24c.09-.09.23-.09.31 0l4.25 4.24c.78.78 2.04.78 2.82 0 .78-.77.78-2.04 0-2.82l-4.24-4.24a.223.223 0 0 1 0-.32zm0 0"/></svg>