<svg height="19" width="18" xmlns="http://www.w3.org/2000/svg" viewBox="0 0 18 19"><path fill="#276cca" fill-rule="evenodd" d="M13.26 3H4.7c-.39 0-.7-.3-.7-.66V.66C4 .3 4.31 0 4.7 0h8.56c.38 0 .7.3.7.66v1.68c0 .36-.32.66-.7.66zm2.29 1H2.45C1.1 4 0 5.26 0 6.82v5.3c0 1.56 1.1 2.82 2.45 2.82h.33c.33 0 .59-.3.59-.68v-1.52c0-.93.66-1.69 1.47-1.69h8.33c.82 0 1.47.76 1.47 1.69v1.52c0 .38.27.68.59.68h.32c1.35 0 2.45-1.26 2.45-2.82v-5.3C18 5.26 16.9 4 15.55 4zm.59 3.31c0 .4-.29.73-.64.73h-.53c-.35 0-.63-.33-.63-.73v-.56c0-.41.28-.73.63-.73h.53c.35 0 .64.32.64.73v.56zM13.19 12H4.76c-.42 0-.76.38-.76.86v5.28c0 .48.34.86.76.86h8.43c.42 0 .77-.38.77-.86v-5.28c0-.48-.35-.86-.77-.86zm-1.81 5H6.56c-.33 0-.59-.22-.59-.5 0-.27.26-.5.59-.5h4.82c.33 0 .59.22.59.5 0 .27-.26.5-.59.5zm0-2H6.56c-.33 0-.59-.22-.59-.5 0-.27.26-.5.59-.5h4.82c.33 0 .59.22.59.5 0 .27-.26.5-.59.5zm0 0"/></svg>