<svg height="16" width="9" xmlns="http://www.w3.org/2000/svg" viewBox="0 0 9 16"><path fill="#acc1c7" fill-rule="evenodd" d="M6.64 8.94c-.55-.7-.54-1.24 0-1.92.38-.5 1.34-1.55 1.69-2.02.35-.47.47-.81.47-2.61C8.8.18 5.07 0 4.4 0 3.73 0 0 .18 0 2.39 0 4.19.12 4.53.47 5c.35.47 1.31 1.52 1.69 2.02.54.68.55 1.22 0 1.92-.54.69-1.36 1.58-1.67 2.07C.18 11.5 0 12.02 0 12.4v1.35c0 .33.26.99.63 1.22C1 15.2 2.39 16 4.4 16s3.4-.8 3.77-1.03c.37-.23.63-.89.63-1.22V12.4c0-.38-.18-.9-.49-1.39-.31-.49-1.13-1.38-1.67-2.07zm-3.52-3.7c.23.12.87.28 1.28.28.41 0 1.05-.16 1.28-.28.24-.12.46.21.29.39-.39.42-1.24 1.13-1.24 2.32 0 1.18.3 1.34.3 1.86s-.39.62-.63.62-.64-.1-.64-.62.31-.68.31-1.86c0-1.19-.85-1.9-1.24-2.32-.17-.18.05-.51.29-.39zm3.94 8.69c-.36.2-1.42.6-2.66.6-1.24 0-2.3-.4-2.66-.6-.36-.21-.33-.61-.16-.77.16-.16 2.12-1.93 2.82-1.93.74 0 2.66 1.77 2.82 1.93.17.16.2.56-.16.77zm0 0"/></svg>