<?xml version="1.0" encoding="utf-8"?>
<!-- Generator: Avocode 2.6.0 - http://avocode.com -->
<svg height="13" width="7" xmlns:xlink="http://www.w3.org/1999/xlink" xmlns="http://www.w3.org/2000/svg" viewBox="0 0 7 13">
    <path fill="#276cca" fill-rule="evenodd" d="M 1.5 6.26 L 6.7 1.07 C 6.95 0.82 6.95 0.42 6.7 0.18 C 6.46 -0.06 6.07 -0.06 5.82 0.19 L 0.22 5.79 C 0.21 5.8 0.19 5.81 0.18 5.82 C 0.06 5.94 0 6.1 0 6.26 C 0 6.42 0.06 6.58 0.18 6.7 C 0.19 6.72 0.21 6.73 0.22 6.74 L 5.82 12.34 C 6.07 12.59 6.46 12.59 6.7 12.34 C 6.95 12.1 6.95 11.71 6.7 11.46 L 1.5 6.26 Z M 1.5 6.26" />
</svg>