<?xml version="1.0" encoding="utf-8"?>
<!-- Generator: Avocode 2.6.0 - http://avocode.com -->
<svg height="16" width="16" xmlns:xlink="http://www.w3.org/1999/xlink" xmlns="http://www.w3.org/2000/svg" viewBox="0 0 16 16">
    <path fill="#ffffff" fill-rule="evenodd" d="M 11.05 7.84 L 15.4 3.49 C 16.2 2.69 16.2 1.4 15.4 0.6 C 14.6 -0.2 13.31 -0.2 12.51 0.6 L 8.16 4.95 C 8.07 5.04 7.93 5.04 7.84 4.95 L 3.49 0.6 C 2.69 -0.2 1.4 -0.2 0.6 0.6 C -0.2 1.4 -0.2 2.69 0.6 3.49 L 4.95 7.84 C 5.04 7.93 5.04 8.07 4.95 8.16 L 0.6 12.51 C -0.2 13.31 -0.2 14.6 0.6 15.4 C 1.4 16.2 2.69 16.2 3.49 15.4 L 7.84 11.05 C 7.93 10.96 8.07 10.96 8.16 11.05 L 12.51 15.4 C 13.31 16.2 14.6 16.2 15.4 15.4 C 16.2 14.6 16.2 13.31 15.4 12.51 L 11.05 8.16 C 10.96 8.07 10.96 7.93 11.05 7.84 Z M 11.05 7.84" />
</svg>