<?xml version="1.0" encoding="utf-8"?>
<!-- Generator: Avocode 2.6.0 - http://avocode.com -->
<svg height="20" width="20" xmlns:xlink="http://www.w3.org/1999/xlink" xmlns="http://www.w3.org/2000/svg" viewBox="0 0 20 20">
    <path fill="#acc1c7" fill-rule="evenodd" d="M 6.22 13.78 C 10.89 18.45 15.07 19.86 15.65 19.94 C 16.23 20.03 17.19 20.21 18.57 18.83 C 20.19 17.21 20.35 16.36 19.46 15.47 C 18.57 14.58 16.36 13.23 15.75 12.88 C 15.15 12.53 14.64 12.64 14.21 12.95 C 13.77 13.25 13.27 13.63 12.81 13.97 C 12.34 14.3 11.76 14.45 11.14 14.05 C 10.52 13.66 9.47 12.92 8.27 11.73 C 7.08 10.53 6.34 9.48 5.95 8.86 C 5.55 8.24 5.7 7.66 6.03 7.19 C 6.37 6.73 6.75 6.23 7.05 5.79 C 7.36 5.36 7.47 4.85 7.12 4.25 C 6.77 3.64 5.42 1.43 4.53 0.54 C 3.64 -0.35 2.79 -0.19 1.17 1.43 C -0.21 2.81 -0.03 3.77 0.06 4.35 C 0.14 4.93 1.55 9.11 6.22 13.78" />
</svg>