<?xml version="1.0" encoding="utf-8"?>
<!-- Generator: Avocode 2.6.0 - http://avocode.com -->
<svg height="13" width="20" xmlns:xlink="http://www.w3.org/1999/xlink" xmlns="http://www.w3.org/2000/svg" viewBox="0 0 20 13">
    <path fill="#acc1c7" fill-rule="evenodd" d="M 10.82 8.34 L 19.06 2.1 C 19.44 1.81 20 2.07 20 2.53 L 20 11.29 C 20 11.92 19.47 12.43 18.82 12.43 L 1.18 12.43 C 0.53 12.43 0 11.92 0 11.29 L 0 2.53 C 0 2.07 0.56 1.81 0.94 2.1 L 9.17 8.34 C 9.65 8.71 10.33 8.71 10.82 8.34 L 10.82 8.34 Z M 1.67 0 C 1.13 0 0.9 0.66 1.33 0.98 L 9.42 6.92 C 9.76 7.17 10.22 7.17 10.56 6.92 L 18.67 0.98 C 19.1 0.66 18.87 0 18.32 0 L 1.67 0 L 1.67 0 Z M 1.67 0" />
</svg>