<?xml version="1.0" encoding="utf-8"?>
<!-- Generator: Avocode 2.6.0 - http://avocode.com -->
<svg height="17" width="17" xmlns:xlink="http://www.w3.org/1999/xlink" xmlns="http://www.w3.org/2000/svg" viewBox="0 0 17 17">
    <path fill="#acc1c7" fill-rule="evenodd" d="M 11.97 8.01 L 16.32 3.66 C 17.12 2.86 17.12 1.57 16.32 0.77 C 15.53 -0.03 14.23 -0.03 13.43 0.77 L 9.08 5.12 C 8.99 5.21 8.85 5.21 8.76 5.12 L 4.41 0.77 C 3.61 -0.03 2.32 -0.03 1.52 0.77 C 0.72 1.57 0.72 2.86 1.52 3.66 L 5.87 8.01 C 5.96 8.1 5.96 8.24 5.87 8.33 L 1.52 12.68 C 0.72 13.48 0.72 14.78 1.52 15.57 C 2.32 16.37 3.61 16.37 4.41 15.57 L 8.76 11.22 C 8.85 11.14 8.99 11.14 9.08 11.22 L 13.43 15.57 C 14.23 16.37 15.53 16.37 16.32 15.57 C 17.12 14.78 17.12 13.48 16.32 12.68 L 11.97 8.33 C 11.89 8.24 11.89 8.1 11.97 8.01 Z M 11.97 8.01" />
</svg>