<?xml version="1.0" encoding="utf-8"?>
<!-- Generator: Avocode 2.6.0 - http://avocode.com -->
<svg height="46" width="46" xmlns:xlink="http://www.w3.org/1999/xlink" xmlns="http://www.w3.org/2000/svg" viewBox="0 0 46 46">
    <path fill="#21d390" fill-rule="evenodd" d="M 22.81 45.63 C 35.37 45.63 45.55 35.45 45.55 22.89 C 45.55 10.34 35.37 0.16 22.81 0.16 C 10.26 0.16 0.08 10.34 0.08 22.89 C 0.08 35.45 10.26 45.63 22.81 45.63 Z M 32.2 19.57 C 33.17 18.61 33.17 17.05 32.2 16.09 C 31.22 15.13 29.64 15.13 28.66 16.09 L 20.43 24.2 L 17.42 21.23 C 16.45 20.27 14.87 20.27 13.89 21.23 C 12.91 22.19 12.91 23.75 13.89 24.71 L 19.15 29.89 C 19.86 30.59 21.01 30.59 21.72 29.89 L 32.2 19.57 Z M 32.2 19.57" />
</svg>