<?xml version="1.0" encoding="utf-8"?>
<!-- Generator: Avocode 2.6.0 - http://avocode.com -->
<svg height="46" width="45" xmlns:xlink="http://www.w3.org/1999/xlink" xmlns="http://www.w3.org/2000/svg" viewBox="0 0 45 46">
    <path fill="#ff6b6b" fill-rule="evenodd" d="M 22.54 45.23 C 34.86 45.23 44.86 35.23 44.86 22.91 C 44.86 10.58 34.86 0.59 22.54 0.59 C 10.21 0.59 0.22 10.58 0.22 22.91 C 0.22 35.23 10.21 45.23 22.54 45.23 Z M 25.52 22.75 L 29.76 18.5 C 30.54 17.72 30.54 16.46 29.76 15.68 C 28.98 14.9 27.72 14.9 26.94 15.68 L 22.69 19.93 C 22.61 20.01 22.47 20.01 22.38 19.93 L 18.13 15.68 C 17.35 14.9 16.09 14.9 15.31 15.68 C 14.53 16.46 14.53 17.72 15.31 18.5 L 19.56 22.75 C 19.64 22.84 19.64 22.98 19.56 23.07 L 15.31 27.31 C 14.53 28.09 14.53 29.36 15.31 30.13 C 16.09 30.91 17.35 30.91 18.13 30.13 L 22.38 25.89 C 22.47 25.8 22.61 25.8 22.69 25.89 L 26.94 30.13 C 27.72 30.91 28.98 30.91 29.76 30.13 C 30.54 29.36 30.54 28.09 29.76 27.31 L 25.52 23.07 C 25.43 22.98 25.43 22.84 25.52 22.75 Z M 25.52 22.75" />
</svg>