<?xml version="1.0" encoding="utf-8"?>
<!-- Generator: Avocode 2.6.0 - http://avocode.com -->
<svg height="21" width="21" xmlns:xlink="http://www.w3.org/1999/xlink" xmlns="http://www.w3.org/2000/svg" viewBox="0 0 21 21">
    <path fill="#ff6b6b" fill-rule="evenodd" d="M 10.07 20.4 C 15.6 20.4 20.07 15.92 20.07 10.4 C 20.07 4.87 15.6 0.4 10.07 0.4 C 4.55 0.4 0.07 4.87 0.07 10.4 C 0.07 15.92 4.55 20.4 10.07 20.4 Z M 11.41 10.33 L 13.31 8.42 C 13.66 8.07 13.66 7.51 13.31 7.16 C 12.96 6.81 12.4 6.81 12.05 7.16 L 10.14 9.06 C 10.11 9.1 10.04 9.1 10 9.06 L 8.1 7.16 C 7.75 6.81 7.19 6.81 6.84 7.16 C 6.49 7.51 6.49 8.07 6.84 8.42 L 8.74 10.33 C 8.78 10.36 8.78 10.43 8.74 10.47 L 6.84 12.37 C 6.49 12.72 6.49 13.29 6.84 13.63 C 7.19 13.98 7.75 13.98 8.1 13.63 L 10 11.73 C 10.04 11.69 10.11 11.69 10.14 11.73 L 12.05 13.63 C 12.4 13.98 12.96 13.98 13.31 13.63 C 13.66 13.29 13.66 12.72 13.31 12.37 L 11.41 10.47 C 11.37 10.43 11.37 10.36 11.41 10.33 Z M 11.41 10.33" />
</svg>