<?xml version="1.0" encoding="utf-8"?>
<!-- Generator: Avocode 2.6.0 - http://avocode.com -->
<svg height="20" width="20" xmlns:xlink="http://www.w3.org/1999/xlink" xmlns="http://www.w3.org/2000/svg" viewBox="0 0 20 20">
    <path fill="#364448" fill-rule="evenodd" d="M 7.54 9 L 1.46 9 C 0.65 9 0 8.35 0 7.54 L 0 1.46 C 0 0.65 0.65 0 1.46 0 L 7.54 0 C 8.35 0 9 0.65 9 1.46 L 9 7.54 C 9 8.35 8.35 9 7.54 9 Z M 18.54 9 L 12.46 9 C 11.65 9 11 8.35 11 7.54 L 11 1.46 C 11 0.65 11.65 0 12.46 0 L 18.54 0 C 19.35 0 20 0.65 20 1.46 L 20 7.54 C 20 8.35 19.35 9 18.54 9 Z M 7.54 20 L 1.46 20 C 0.65 20 0 19.35 0 18.54 L 0 12.46 C 0 11.65 0.65 11 1.46 11 L 7.54 11 C 8.35 11 9 11.65 9 12.46 L 9 18.54 C 9 19.35 8.35 20 7.54 20 Z M 18.54 20 L 12.46 20 C 11.65 20 11 19.35 11 18.54 L 11 12.46 C 11 11.65 11.65 11 12.46 11 L 18.54 11 C 19.35 11 20 11.65 20 12.46 L 20 18.54 C 20 19.35 19.35 20 18.54 20 Z M 18.54 20" />
</svg>