<?xml version="1.0" encoding="utf-8"?>
<!-- Generator: Avocode 2.6.0 - http://avocode.com -->
<svg height="16" width="24" xmlns:xlink="http://www.w3.org/1999/xlink" xmlns="http://www.w3.org/2000/svg" viewBox="0 0 24 16">
    <path fill="#276cca" fill-rule="evenodd" d="M 19 11.12 L 19 14.25 C 19 15.22 18.23 16 17.27 16 L 1.73 16 C 0.77 16 0 15.22 0 14.25 L 0 8.13 L 16.5 8.13 L 16.5 9.12 C 16.5 10.23 17.4 11.12 18.5 11.12 L 19 11.12 Z M 13.98 2 L 1.73 2 C 0.77 2 0 2.78 0 3.75 L 0 5.5 L 13 5.5 C 13 5.46 13 5.42 13 5.38 L 13 3.72 C 13 2.99 13.39 2.35 13.98 2 Z M 13.98 2" />
    <path fill="#276cca" fill-rule="evenodd" d="M 20.33 0 L 20.33 0 L 18.5 0 L 18.5 3.72 L 15 3.72 L 15 5.38 L 18.5 5.38 L 18.5 9.12 L 20.33 9.12 L 20.33 5.38 L 23.85 5.38 L 23.85 3.72 L 20.33 3.72 L 20.33 0 Z M 20.33 0" />
</svg>