<?xml version="1.0" encoding="utf-8"?>
<!-- Generator: Avocode 2.6.0 - http://avocode.com -->
<svg height="13" width="8" xmlns:xlink="http://www.w3.org/1999/xlink" xmlns="http://www.w3.org/2000/svg" viewBox="0 0 8 13">
    <path fill="#acc1c7" fill-rule="evenodd" transform="rotate(180 4 6.5)" d="M 1.86 6.36 L 6.92 1.3 C 7.16 1.06 7.16 0.68 6.92 0.44 C 6.69 0.21 6.3 0.21 6.06 0.45 L 0.61 5.9 C 0.6 5.91 0.59 5.92 0.57 5.93 C 0.46 6.05 0.4 6.2 0.4 6.36 C 0.4 6.52 0.46 6.67 0.57 6.79 C 0.59 6.8 0.6 6.81 0.61 6.82 L 6.06 12.27 C 6.3 12.51 6.69 12.52 6.92 12.28 C 7.16 12.04 7.16 11.66 6.92 11.42 L 1.86 6.36 Z M 1.86 6.36" />
</svg>
