<?xml version="1.0" encoding="utf-8"?>
<!-- Generator: Avocode 2.6.0 - http://avocode.com -->
<svg height="64" width="64" xmlns:xlink="http://www.w3.org/1999/xlink" xmlns="http://www.w3.org/2000/svg" viewBox="0 0 64 64">
    <path fill="#21d390" fill-rule="evenodd" d="M 31.74 63.48 C 49.21 63.48 63.37 49.32 63.37 31.85 C 63.37 14.38 49.21 0.22 31.74 0.22 C 14.27 0.22 0.11 14.38 0.11 31.85 C 0.11 49.32 14.27 63.48 31.74 63.48 Z M 44.8 27.23 C 46.15 25.89 46.15 23.72 44.8 22.38 C 43.44 21.05 41.24 21.05 39.88 22.38 L 28.43 33.66 L 24.24 29.54 C 22.89 28.2 20.68 28.2 19.32 29.54 C 17.96 30.88 17.96 33.05 19.32 34.39 L 26.64 41.59 C 27.63 42.56 29.23 42.56 30.22 41.59 L 44.8 27.23 Z M 44.8 27.23" />
</svg>