<?xml version="1.0" encoding="utf-8"?>
<!-- Generator: Avocode 2.6.0 - http://avocode.com -->
<svg height="23" width="139" xmlns:xlink="http://www.w3.org/1999/xlink" xmlns="http://www.w3.org/2000/svg" viewBox="0 0 139 23">
    <path fill="#276cca" fill-rule="evenodd" d="M 7.07 22.07 L 7.07 15.23 L 12.09 15.23 C 17.16 15.23 19.9 11.85 19.9 7.81 C 19.9 3.74 17.16 0.36 12.09 0.36 L 0.5 0.36 L 0.5 22.07 L 7.07 22.07 Z M 11.24 9.5 L 7.07 9.5 L 7.07 6.09 L 11.24 6.09 C 12.35 6.09 13.23 6.64 13.23 7.81 C 13.23 8.95 12.35 9.5 11.24 9.5 L 11.24 9.5 Z M 47.81 22.07 L 39.8 0.36 L 31.53 0.36 L 23.53 22.07 L 30.98 22.07 L 31.76 19.53 L 39.57 19.53 L 40.35 22.07 L 47.81 22.07 Z M 37.82 13.8 L 33.52 13.8 L 35.67 6.8 L 37.82 13.8 Z M 65.17 22.07 L 65.17 13.44 L 73.24 0.36 L 65.85 0.36 L 61.88 7.68 L 57.85 0.36 L 50.46 0.36 L 58.6 13.44 L 58.6 22.07 L 65.17 22.07 Z M 106.29 22.07 L 106.29 0.36 L 97.21 0.36 L 93.41 10.77 L 89.6 0.36 L 80.52 0.36 L 80.52 22.07 L 87.09 22.07 L 87.09 9.02 L 91.94 22.07 L 94.87 22.07 L 99.72 9.02 L 99.72 22.07 L 106.29 22.07 Z M 126.62 22.46 C 133.33 22.46 138.5 17.9 138.5 11.23 C 138.5 4.56 133.33 0 126.62 0 C 119.92 0 114.74 4.56 114.74 11.23 C 114.74 17.9 119.92 22.46 126.62 22.46 L 126.62 22.46 Z M 126.62 16.66 C 123.46 16.66 121.41 14.26 121.41 11.23 C 121.41 8.2 123.46 5.79 126.62 5.79 C 129.78 5.79 131.83 8.2 131.83 11.23 C 131.83 14.26 129.78 16.66 126.62 16.66 L 126.62 16.66 Z M 126.62 16.66" />
</svg>