<?xml version="1.0" encoding="utf-8"?>
<!-- Generator: Avocode 2.6.0 - http://avocode.com -->
<svg height="19" width="18" xmlns:xlink="http://www.w3.org/1999/xlink" xmlns="http://www.w3.org/2000/svg" viewBox="0 0 18 19">
    <path fill="#276cca" fill-rule="evenodd" d="M 13.26 3 L 4.7 3 C 4.31 3 4 2.7 4 2.34 L 4 0.66 C 4 0.3 4.31 0 4.7 0 L 13.26 0 C 13.64 0 13.96 0.3 13.96 0.66 L 13.96 2.34 C 13.96 2.7 13.64 3 13.26 3 Z M 15.55 4 L 2.45 4 C 1.1 4 0 5.26 0 6.82 L 0 12.12 C 0 13.68 1.1 14.94 2.45 14.94 L 2.78 14.94 C 3.11 14.94 3.37 14.64 3.37 14.26 L 3.37 12.74 C 3.37 11.81 4.03 11.05 4.84 11.05 L 13.17 11.05 C 13.99 11.05 14.64 11.81 14.64 12.74 L 14.64 14.26 C 14.64 14.64 14.91 14.94 15.23 14.94 L 15.55 14.94 C 16.9 14.94 18 13.68 18 12.12 L 18 6.82 C 18 5.26 16.9 4 15.55 4 Z M 16.14 7.31 C 16.14 7.71 15.85 8.04 15.5 8.04 L 14.97 8.04 C 14.62 8.04 14.34 7.71 14.34 7.31 L 14.34 6.75 C 14.34 6.34 14.62 6.02 14.97 6.02 L 15.5 6.02 C 15.85 6.02 16.14 6.34 16.14 6.75 L 16.14 7.31 Z M 13.19 12 L 4.76 12 C 4.34 12 4 12.38 4 12.86 L 4 18.14 C 4 18.62 4.34 19 4.76 19 L 13.19 19 C 13.61 19 13.96 18.62 13.96 18.14 L 13.96 12.86 C 13.96 12.38 13.61 12 13.19 12 Z M 11.38 17 L 6.56 17 C 6.23 17 5.97 16.78 5.97 16.5 C 5.97 16.23 6.23 16 6.56 16 L 11.38 16 C 11.71 16 11.97 16.22 11.97 16.5 C 11.97 16.77 11.71 17 11.38 17 L 11.38 17 Z M 11.38 15 L 6.56 15 C 6.23 15 5.97 14.78 5.97 14.5 C 5.97 14.23 6.23 14 6.56 14 L 11.38 14 C 11.71 14 11.97 14.22 11.97 14.5 C 11.97 14.77 11.71 15 11.38 15 L 11.38 15 Z M 11.38 15" />
</svg>