<?xml version="1.0" encoding="utf-8"?>
<!-- Generator: Avocode 2.6.0 - http://avocode.com -->
<svg height="16" width="9" xmlns:xlink="http://www.w3.org/1999/xlink" xmlns="http://www.w3.org/2000/svg" viewBox="0 0 9 16">
    <path fill="#acc1c7" fill-rule="evenodd" d="M 6.64 8.94 C 6.09 8.24 6.1 7.7 6.64 7.02 C 7.02 6.52 7.98 5.47 8.33 5 C 8.68 4.53 8.8 4.19 8.8 2.39 C 8.8 0.18 5.07 0 4.4 0 C 3.73 0 0 0.18 0 2.39 C 0 4.19 0.12 4.53 0.47 5 C 0.82 5.47 1.78 6.52 2.16 7.02 C 2.7 7.7 2.71 8.24 2.16 8.94 C 1.62 9.63 0.8 10.52 0.49 11.01 C 0.18 11.5 0 12.02 0 12.4 C 0 12.78 0 13.42 0 13.75 C 0 14.08 0.26 14.74 0.63 14.97 C 1 15.2 2.39 16 4.4 16 C 6.41 16 7.8 15.2 8.17 14.97 C 8.54 14.74 8.8 14.08 8.8 13.75 C 8.8 13.42 8.8 12.78 8.8 12.4 C 8.8 12.02 8.62 11.5 8.31 11.01 C 8 10.52 7.18 9.63 6.64 8.94 L 6.64 8.94 Z M 3.12 5.24 C 3.35 5.36 3.99 5.52 4.4 5.52 C 4.81 5.52 5.45 5.36 5.68 5.24 C 5.92 5.12 6.14 5.45 5.97 5.63 C 5.58 6.05 4.73 6.76 4.73 7.95 C 4.73 9.13 5.03 9.29 5.03 9.81 C 5.03 10.33 4.64 10.43 4.4 10.43 C 4.16 10.43 3.76 10.33 3.76 9.81 C 3.76 9.29 4.07 9.13 4.07 7.95 C 4.07 6.76 3.22 6.05 2.83 5.63 C 2.66 5.45 2.88 5.12 3.12 5.24 L 3.12 5.24 Z M 7.06 13.93 C 6.7 14.13 5.64 14.53 4.4 14.53 C 3.16 14.53 2.1 14.13 1.74 13.93 C 1.38 13.72 1.41 13.32 1.58 13.16 C 1.74 13 3.7 11.23 4.4 11.23 C 5.14 11.23 7.06 13 7.22 13.16 C 7.39 13.32 7.42 13.72 7.06 13.93 L 7.06 13.93 Z M 7.06 13.93" />
</svg>